<svg xmlns="http://www.w3.org/2000/svg" xmlns:xlink="http://www.w3.org/1999/xlink" viewBox="0 0 399.18 161.4"><defs><style>.cls-1{fill:none;}.cls-2{clip-path:url(#clip-path);}.cls-3{fill:#fbb042;}.cls-4{fill:#f8ed33;}.cls-5{fill:#6e7490;}.cls-6{fill:#e2e3e9;}.cls-7{fill:#c2c1c6;}.cls-8{fill:#b2b2b9;}.cls-9{fill:#d6d7d7;}.cls-10{fill:#f2f2f2;}.cls-11{fill:#8d8f91;}.cls-12{fill:#fff;}.cls-13{fill:#696a6c;}.cls-14{fill:#165a65;}.cls-15{fill:#1e8595;}.cls-16{fill:#d3edf3;}.cls-17{fill:#6e6f72;}.cls-18{fill:#b22024;}.cls-19{fill:#ee3628;}.cls-20{fill:#3f4251;}.cls-21{fill:#f04b51;}.cls-22{fill:#86858a;}.cls-23{fill:#a8a8aa;}.cls-24{fill:#525456;}.cls-25{fill:#c92027;}.cls-26{fill:#87171a;}.cls-27{fill:url(#New_Gradient_Swatch_2);}.cls-28{fill:url(#New_Gradient_Swatch_2-2);}.cls-29{fill:url(#New_Gradient_Swatch_2-3);}.cls-30{fill:url(#New_Gradient_Swatch_2-4);}.cls-31{fill:url(#New_Gradient_Swatch_2-5);}.cls-32{fill:url(#New_Gradient_Swatch_2-6);}.cls-33{fill:url(#New_Gradient_Swatch_2-7);}.cls-34{fill:url(#Apple);}.cls-35{fill:url(#Apple-2);}.cls-36{fill:url(#Apple-3);}.cls-37{fill:url(#Apple-4);}.cls-38{fill:url(#Apple-5);}.cls-39{fill:url(#Apple-6);}.cls-40{fill:#f5a800;}</style><clipPath id="clip-path"><rect class="cls-1" x="264.51" y="0.99" width="113.71" height="113.76"/></clipPath><linearGradient id="New_Gradient_Swatch_2" x1="37.41" y1="83.43" x2="132.09" y2="83.43" gradientUnits="userSpaceOnUse"><stop offset="0" stop-color="#282882"/><stop offset="0.47" stop-color="#4f85bc"/><stop offset="0.49" stop-color="#5189bf"/><stop offset="1" stop-color="#0d004c"/></linearGradient><linearGradient id="New_Gradient_Swatch_2-2" x1="93.32" y1="80.77" x2="117.45" y2="80.77" xlink:href="#New_Gradient_Swatch_2"/><linearGradient id="New_Gradient_Swatch_2-3" x1="112.22" y1="90.07" x2="142.71" y2="90.07" xlink:href="#New_Gradient_Swatch_2"/><linearGradient id="New_Gradient_Swatch_2-4" x1="131.88" y1="78.11" x2="165.25" y2="78.11" xlink:href="#New_Gradient_Swatch_2"/><linearGradient id="New_Gradient_Swatch_2-5" x1="154.4" y1="87.41" x2="186.84" y2="87.41" xlink:href="#New_Gradient_Swatch_2"/><linearGradient id="New_Gradient_Swatch_2-6" x1="182.55" y1="92.73" x2="216.8" y2="92.73" xlink:href="#New_Gradient_Swatch_2"/><linearGradient id="New_Gradient_Swatch_2-7" x1="199.26" y1="112.67" x2="255.66" y2="112.67" xlink:href="#New_Gradient_Swatch_2"/><linearGradient id="Apple" x1="107.09" y1="121.42" x2="107.09" y2="161.4" gradientUnits="userSpaceOnUse"><stop offset="0" stop-color="#97292d"/><stop offset="0.12" stop-color="#ce3045"/><stop offset="0.13" stop-color="#d33b4b"/><stop offset="0.19" stop-color="#e56360"/><stop offset="0.23" stop-color="#f07b6d"/><stop offset="0.26" stop-color="#f48472"/><stop offset="0.39" stop-color="#bb3041"/><stop offset="0.55" stop-color="#cd3045"/><stop offset="0.55" stop-color="#ce3045"/><stop offset="0.79" stop-color="#cd6c60"/><stop offset="0.79" stop-color="#cd695e"/><stop offset="0.83" stop-color="#ce4a51"/><stop offset="0.86" stop-color="#ce3748"/><stop offset="0.88" stop-color="#ce3045"/><stop offset="0.92" stop-color="#c63447"/><stop offset="0.98" stop-color="#af3f4b"/><stop offset="1" stop-color="#a7434d"/><stop offset="1" stop-color="#881c27"/></linearGradient><linearGradient id="Apple-2" x1="158.79" y1="122.27" x2="158.79" y2="160.52" xlink:href="#Apple"/><linearGradient id="Apple-3" x1="211.64" y1="122.27" x2="211.64" y2="160.52" xlink:href="#Apple"/><linearGradient id="Apple-4" x1="264.14" y1="122.27" x2="264.14" y2="160.52" xlink:href="#Apple"/><linearGradient id="Apple-5" x1="321.37" y1="121.42" x2="321.37" y2="161.4" xlink:href="#Apple"/><linearGradient id="Apple-6" x1="379.09" y1="120.82" x2="379.09" y2="160.52" xlink:href="#Apple"/></defs><title>select-logo-new</title><g id="Layer_2" data-name="Layer 2"><g id="Layer_1-2" data-name="Layer 1"><g class="cls-2"><path class="cls-3" d="M307.67,79.68l-4-4.05-4.07-4.07s-8.24-1.09-17.42,9.09-16.23,30.41-17.63,34.1c3.7-1.4,23.92-8.44,34.1-17.62s9.06-17.45,9.06-17.45Z"/></g><path class="cls-4" d="M307.67,79.68l-8.14-8.14s-12.45,1.57-21.22,29.35c27.79-8.76,29.36-21.21,29.36-21.21Z"/><polygon class="cls-5" points="324.79 68.96 309.12 78.23 305.05 74.16 317.52 61.68 324.79 68.96 324.79 68.96"/><g class="cls-2"><polygon class="cls-6" points="317.52 61.69 305.05 74.16 300.98 70.09 307.65 58.82 308.35 57.62 309.94 54.95 310.25 54.41 317.52 61.69 317.52 61.69"/><path class="cls-7" d="M354,51.77q-3.57,2.94-6.67,5.39c-1.25,1-2.44,1.93-3.59,2.81l-2,1.53L339.8,63l-.13.1c-6.57,4.92-11.31,8-15.23,10.66a8.75,8.75,0,0,0-2.87-7.14l-4.46-4.46h0l61-61a62.85,62.85,0,0,1-2,20.52c-.15.53-.31,1.06-.47,1.59-.12.36-.23.72-.36,1.08a41.56,41.56,0,0,1-4.27,9c-5.08,7.9-11.9,14.23-17,18.43Z"/></g><path class="cls-8" d="M343.08,75.62c-10.52,10-20.64,18.91-28.3,25.45l-.77.67-1.13,1c-6,5.08-10.15,8.46-11.35,9.42-.19.16-.23.13-.08-.07,2.85-3.77,5.88-7.88,8.79-12l.85-1.22c.21-.29.4-.57.59-.85,3.14-4.52,6.05-9,8.3-12.89,1.08-1.87,2-3.62,2.74-5.21a17,17,0,0,0,1.72-6.16c3.94-2.63,8.72-5.78,15.36-10.76,2.27-1.7,4.76-3.62,7.51-5.8,4.1,8.62-.57,15-4.23,18.46Z"/><g class="cls-2"><path class="cls-9" d="M305.49,54.77a16.81,16.81,0,0,0-6.16,1.73c-1.58.73-3.34,1.65-5.21,2.73-3.92,2.26-8.37,5.16-12.88,8.3-.29.19-.57.39-.85.59s-.82.56-1.22.85c-4.12,2.91-8.23,5.94-12,8.79-.21.15-.24.11-.08-.08,1-1.2,4.34-5.37,9.42-11.35l1-1.12.67-.78c6.54-7.66,15.45-17.78,25.45-28.3,3.49-3.66,9.85-8.33,18.46-4.23-2.18,2.75-4.1,5.24-5.8,7.51-5,6.64-8.13,11.42-10.76,15.36Z"/><path class="cls-10" d="M378.05,1.18l-61,61-3.47-3.47-1-1a10.46,10.46,0,0,0-2.21-1.75,8.44,8.44,0,0,0-4.93-1.12c2.61-3.92,5.74-8.66,10.66-15.23l.1-.13c1.7-2.27,3.62-4.76,5.8-7.51,1.64-2.07,3.43-4.29,5.4-6.67,4.19-5.09,10.52-11.91,18.43-17a41,41,0,0,1,9-4.29L356,3.64l1.54-.46a63,63,0,0,1,20.51-2,0,0,0,0,1,0,0Z"/></g><path class="cls-11" d="M354.72,42.17a14.23,14.23,0,1,1,10-17.42,14.23,14.23,0,0,1-10,17.42Z"/><path class="cls-12" d="M354.72,41.92a14.23,14.23,0,1,1,10-17.43,14.24,14.24,0,0,1-10,17.43Z"/><path class="cls-13" d="M358.75,35.89a10.91,10.91,0,1,1,0-15.43,10.91,10.91,0,0,1,0,15.43Z"/><path class="cls-14" d="M358.33,35.47a10.32,10.32,0,1,1,0-14.59,10.31,10.31,0,0,1,0,14.59Z"/><path class="cls-15" d="M357.24,34.38a8.78,8.78,0,1,1,0-12.41,8.77,8.77,0,0,1,0,12.41Z"/><path class="cls-16" d="M343.82,24a9.44,9.44,0,0,1,15.94,4.87A8.76,8.76,0,0,0,344.84,22a8.89,8.89,0,0,0-2.08,3.33A10.49,10.49,0,0,1,343.82,24Z"/><path class="cls-17" d="M360.36,19.69a.7.7,0,1,1-1-1,.71.71,0,0,1,1,0,.69.69,0,0,1,0,1Z"/><path class="cls-17" d="M354.87,16.17a.7.7,0,0,1-.86.49.7.7,0,1,1,.86-.49Z"/><path class="cls-17" d="M348.35,15.86a.7.7,0,1,1-.86-.49.7.7,0,0,1,.86.49Z"/><path class="cls-17" d="M342.55,18.85a.7.7,0,1,1-1,0,.71.71,0,0,1,1,0Z"/><path class="cls-17" d="M339,24.34a.7.7,0,1,1-.36,1.35.7.7,0,0,1,.36-1.35Z"/><path class="cls-17" d="M338.72,30.86a.7.7,0,0,1,.36,1.35.7.7,0,1,1-.36-1.35Z"/><path class="cls-17" d="M341.71,36.66a.7.7,0,1,1,0,1,.71.71,0,0,1,0-1Z"/><path class="cls-17" d="M347.2,40.19a.7.7,0,1,1,.49.85.69.69,0,0,1-.49-.85Z"/><path class="cls-17" d="M353.72,40.49a.69.69,0,0,1,.49-.85.7.7,0,1,1,.36,1.35.69.69,0,0,1-.85-.5Z"/><path class="cls-17" d="M359.52,37.5a.7.7,0,1,1,1,0,.71.71,0,0,1-1,0Z"/><path class="cls-17" d="M363,32a.7.7,0,1,1,.86-.49A.69.69,0,0,1,363,32Z"/><g class="cls-2"><path class="cls-17" d="M363.35,25.49a.69.69,0,0,1-.85-.49.7.7,0,0,1,.49-.86.7.7,0,0,1,.36,1.35Z"/><path class="cls-18" d="M376.07,21.66l-9.26-9.26L378.08,1.14a62.85,62.85,0,0,1-2,20.52Z"/><path class="cls-19" d="M378.08,1.14,366.81,12.4l-9.26-9.26a62.73,62.73,0,0,1,20.53-2Z"/></g><path class="cls-20" d="M317.1,62.11,309.94,55l-1.59,2.67-.7,1.2a3.16,3.16,0,0,1,2.79.9L315,64.24l2.13-2.13Z"/><path class="cls-20" d="M317.1,62.11l7.16,7.16-2.68,1.59-1.18.7a3.21,3.21,0,0,0-.9-2.79L315,64.24l2.13-2.13Z"/><path class="cls-18" d="M339.67,63.06c-6.57,4.93-11.31,8-15.23,10.66a8.47,8.47,0,0,0-1.08-4.87,10.69,10.69,0,0,0-1.79-2.27s-.69-.68-1.52-1.52l-2.95-3L327.91,51.3l11.76,11.76Z"/><path class="cls-19" d="M327.91,51.3,317.1,62.11l-3.46-3.46-1-1a10.73,10.73,0,0,0-2.21-1.75,8.44,8.44,0,0,0-4.93-1.12c2.61-3.92,5.74-8.66,10.66-15.23L327.91,51.3Z"/><polygon class="cls-18" points="303.65 75.65 307.67 79.68 309.12 78.23 305.1 74.21 303.65 75.65 303.65 75.65"/><polygon class="cls-21" points="299.53 71.53 303.56 75.56 305 74.11 300.98 70.09 299.53 71.53 299.53 71.53"/><path class="cls-18" d="M343.72,60l-2,1.53-12-12,1.76-1.76L343.72,60Z"/><path class="cls-19" d="M331.48,47.73l-1.76,1.76-12-12c.49-.65,1-1.31,1.53-2l12.24,12.24Z"/><path class="cls-22" d="M334.68,47c-12,12-28.74,27.81-39.58,37.94C288.62,91,284.25,95,284.25,95c-.18.17-.18.17,0,0l.47-.48,50-50a1.73,1.73,0,0,1,0,2.44Z"/><path class="cls-12" d="M334.68,44.53l-50,50-.49.45c-.18.18-.18.17,0,0,0,0,4-4.38,10.11-10.86,10.14-10.83,25.93-27.56,37.94-39.57a1.73,1.73,0,0,1,2.44,0Z"/><path class="cls-18" d="M295.1,84.91C288.62,91,284.25,95,284.25,95c-.18.17-.18.17,0,0l.47-.48,10-10,.4.4Z"/><path class="cls-19" d="M294.7,84.51l-10,10-.49.45c-.18.18-.18.17,0,0,0,0,4-4.38,10.11-10.86l.4.41Z"/><path class="cls-23" d="M360.36,19.69a.7.7,0,1,1-1-1l1,1Z"/><path class="cls-23" d="M363.66,25.31a.69.69,0,0,1-1,0,.68.68,0,0,1,0-1l1,1Z"/><path class="cls-23" d="M363.71,31.83a.69.69,0,0,1-1,0,.71.71,0,0,1,0-1l1,1Z"/><path class="cls-23" d="M360.5,37.5a.69.69,0,1,1-1-1l1,1Z"/><path class="cls-23" d="M354.89,40.81a.7.7,0,0,1-1-1l1,1Z"/><path class="cls-23" d="M348.37,40.86a.71.71,0,0,1-1,0,.69.69,0,0,1,0-1l1,1Z"/><path class="cls-23" d="M342.69,37.65a.69.69,0,0,1-1,0,.71.71,0,0,1,0-1l1,1Z"/><path class="cls-23" d="M339.39,32a.7.7,0,0,1-1-1l1,1Z"/><path class="cls-23" d="M339.33,25.51a.69.69,0,0,1-1-1l1,1Z"/><path class="cls-23" d="M342.55,19.84a.7.7,0,0,1-1-1l1,1Z"/><path class="cls-23" d="M348.17,16.53a.7.7,0,0,1-1-1l1,1Z"/><path class="cls-23" d="M354.69,16.48a.71.71,0,0,1-1,0,.69.69,0,0,1,0-1l1,1Z"/><path class="cls-10" d="M360.29,19.2a.17.17,0,0,1,0,.07.42.42,0,0,1-.42.36.44.44,0,0,1-.42-.36v-.14a.44.44,0,0,1,.42-.36.42.42,0,0,1,.42.36.17.17,0,0,1,0,.07Z"/><path class="cls-24" d="M360.29,19.2a.17.17,0,0,1,0,.07h-.84v-.14h.84a.17.17,0,0,1,0,.07Z"/><path class="cls-10" d="M363.6,24.82a.2.2,0,0,1,0,.07.42.42,0,0,1-.84,0,.2.2,0,0,1,0-.07.17.17,0,0,1,0-.07.43.43,0,0,1,.84,0,.17.17,0,0,1,0,.07Z"/><path class="cls-24" d="M363.6,24.82a.2.2,0,0,1,0,.07h-.84a.2.2,0,0,1,0-.07.17.17,0,0,1,0-.07h.84a.17.17,0,0,1,0,.07Z"/><path class="cls-10" d="M363.65,31.34a.08.08,0,0,1,0,.07.43.43,0,0,1-.85,0,.2.2,0,0,1,0-.07.08.08,0,0,1,0-.07.41.41,0,0,1,.42-.36.43.43,0,0,1,.42.36.16.16,0,0,1,0,.07Z"/><path class="cls-24" d="M363.65,31.34a.08.08,0,0,1,0,.07h-.85a.2.2,0,0,1,0-.07.08.08,0,0,1,0-.07h.84a.16.16,0,0,1,0,.07Z"/><path class="cls-10" d="M360.44,37a.2.2,0,0,1,0,.07.42.42,0,0,1-.84,0,.25.25,0,0,1,0-.14.43.43,0,0,1,.84,0,.2.2,0,0,1,0,.07Z"/><path class="cls-24" d="M360.44,37a.2.2,0,0,1,0,.07h-.84a.25.25,0,0,1,0-.14h.84a.2.2,0,0,1,0,.07Z"/><path class="cls-10" d="M354.82,40.31a.15.15,0,0,1,0,.07.41.41,0,0,1-.42.36.42.42,0,0,1-.42-.36.15.15,0,0,1,0-.07.13.13,0,0,1,0-.06.43.43,0,0,1,.42-.37.42.42,0,0,1,.42.37.13.13,0,0,1,0,.06Z"/><path class="cls-24" d="M354.82,40.31a.15.15,0,0,1,0,.07H354a.15.15,0,0,1,0-.07.13.13,0,0,1,0-.06h.84a.13.13,0,0,1,0,.06Z"/><path class="cls-10" d="M348.31,40.37s0,0,0,.07a.43.43,0,0,1-.85,0v-.07a.17.17,0,0,1,0-.07.41.41,0,0,1,.42-.36.43.43,0,0,1,.42.36s0,.05,0,.07Z"/><path class="cls-24" d="M348.31,40.37s0,0,0,.07h-.85v-.07a.17.17,0,0,1,0-.07h.84s0,.05,0,.07Z"/><path class="cls-10" d="M342.63,37.15a.15.15,0,0,1,0,.07.42.42,0,0,1-.42.37.43.43,0,0,1-.42-.37.15.15,0,0,1,0-.07.13.13,0,0,1,0-.06.42.42,0,0,1,.42-.36.41.41,0,0,1,.42.36.13.13,0,0,1,0,.06Z"/><path class="cls-24" d="M342.63,37.15a.15.15,0,0,1,0,.07h-.84a.15.15,0,0,1,0-.07.13.13,0,0,1,0-.06h.84a.13.13,0,0,1,0,.06Z"/><path class="cls-10" d="M339.33,31.54a.13.13,0,0,1,0,.06.43.43,0,0,1-.42.37.42.42,0,0,1-.42-.37.13.13,0,0,1,0-.06.15.15,0,0,1,0-.07.41.41,0,0,1,.42-.36.42.42,0,0,1,.42.36.15.15,0,0,1,0,.07Z"/><path class="cls-24" d="M339.33,31.54a.13.13,0,0,1,0,.06h-.84a.13.13,0,0,1,0-.06.15.15,0,0,1,0-.07h.84a.15.15,0,0,1,0,.07Z"/><path class="cls-10" d="M339.27,25v.07a.43.43,0,0,1-.85,0,.2.2,0,0,1,0-.07.17.17,0,0,1,0-.07.43.43,0,0,1,.85,0V25Z"/><path class="cls-24" d="M339.27,25v.07h-.85a.2.2,0,0,1,0-.07.17.17,0,0,1,0-.07h.85V25Z"/><path class="cls-10" d="M342.48,19.35v.06a.43.43,0,0,1-.42.37.42.42,0,0,1-.42-.37.13.13,0,0,1,0-.06.15.15,0,0,1,0-.07.41.41,0,0,1,.42-.36.42.42,0,0,1,.42.36v.07Z"/><path class="cls-24" d="M342.48,19.35v.06h-.84a.13.13,0,0,1,0-.06.15.15,0,0,1,0-.07h.84v.07Z"/><path class="cls-10" d="M348.11,16s0,.05,0,.07a.43.43,0,0,1-.85,0V16a.17.17,0,0,1,0-.07.41.41,0,0,1,.42-.36.43.43,0,0,1,.42.36s0,0,0,.07Z"/><path class="cls-24" d="M348.11,16s0,.05,0,.07h-.85V16a.17.17,0,0,1,0-.07h.84s0,0,0,.07Z"/><path class="cls-10" d="M354.62,16a.2.2,0,0,1,0,.07.42.42,0,0,1-.42.36.44.44,0,0,1-.42-.36.2.2,0,0,1,0-.07.17.17,0,0,1,0-.07.43.43,0,0,1,.42-.36.41.41,0,0,1,.42.36.17.17,0,0,1,0,.07Z"/><path class="cls-24" d="M354.62,16a.2.2,0,0,1,0,.07h-.84a.2.2,0,0,1,0-.07.17.17,0,0,1,0-.07h.84a.17.17,0,0,1,0,.07Z"/><path class="cls-19" d="M369.75,15.35l-1-1a20.68,20.68,0,0,0,1.91-2.59.65.65,0,0,1,.88-.21.63.63,0,0,1,.22.87,14.78,14.78,0,0,1-2,3Z"/><path class="cls-18" d="M367.34,12.93l-1-1,2.43-2.29a.64.64,0,0,1,.9.9l-2.29,2.43Z"/><path class="cls-25" d="M374.47,20.07l-1.1-1.1a11.61,11.61,0,0,0,1.15-3.06.66.66,0,0,1,.49-.51.75.75,0,0,1,.26,0,.64.64,0,0,1,.51.75,12.76,12.76,0,0,1-1.31,3.93Z"/><path class="cls-19" d="M372.07,17.66,371,16.6a11.92,11.92,0,0,0,1.52-2.83.64.64,0,0,1,.82-.38.65.65,0,0,1,.38.82,11.18,11.18,0,0,1-1.65,3.45Z"/><path class="cls-26" d="M369.49,15.09l-.77-.78a20.68,20.68,0,0,0,1.91-2.59.6.6,0,0,1,.3-.25.73.73,0,0,1,.19.07.63.63,0,0,1,.22.88,18.23,18.23,0,0,1-1.85,2.67Z"/><path class="cls-26" d="M367.23,12.83,366.4,12l2.21-2.16a.57.57,0,0,1,.81,0,.56.56,0,0,1,0,.81l-2.16,2.21Z"/><path class="cls-26" d="M374,19.57l-.6-.6a11.61,11.61,0,0,0,1.15-3.06.66.66,0,0,1,.49-.51.65.65,0,0,1,.16.56,12.78,12.78,0,0,1-1.2,3.61Z"/><path class="cls-26" d="M371.77,17.36,371,16.6a11.92,11.92,0,0,0,1.52-2.83.46.46,0,1,1,.75.41,11.75,11.75,0,0,1-1.5,3.18Z"/><path class="cls-25" d="M363.86,9.46l1,1a22,22,0,0,1,2.59-1.91.65.65,0,0,0,.25-.3.63.63,0,0,0,0-.58.64.64,0,0,0-.88-.22,14.78,14.78,0,0,0-3,2Z"/><path class="cls-25" d="M359.15,4.74l1.09,1.1a11.61,11.61,0,0,1,3.06-1.15.66.66,0,0,0,.51-.49.75.75,0,0,0,0-.26.64.64,0,0,0-.75-.51,12.66,12.66,0,0,0-3.92,1.31Z"/><path class="cls-25" d="M361.55,7.14l1.06,1.07a11.92,11.92,0,0,1,2.83-1.52.64.64,0,0,0,.38-.82.65.65,0,0,0-.82-.38,11.28,11.28,0,0,0-3.45,1.65Z"/><path class="cls-26" d="M364.12,9.72l.78.77a22,22,0,0,1,2.59-1.91.65.65,0,0,0,.25-.3.73.73,0,0,0-.07-.19.64.64,0,0,0-.88-.22,18.23,18.23,0,0,0-2.67,1.85Z"/><path class="cls-26" d="M359.64,5.24l.6.6a11.61,11.61,0,0,1,3.06-1.15.66.66,0,0,0,.51-.49.65.65,0,0,0-.56-.16,13.17,13.17,0,0,0-3.61,1.2Z"/><path class="cls-26" d="M361.85,7.45l.76.76a11.92,11.92,0,0,1,2.83-1.52.64.64,0,0,0,.39-.41.64.64,0,0,0-.8-.34,12.07,12.07,0,0,0-3.18,1.51Z"/><path class="cls-10" d="M322,31.94l0,0h0c-8.61-4.1-15,.57-18.46,4.23-10.85,11.42-20.42,22.35-27.07,30.2-2.88,3.39-5.21,6.2-6.87,8.22,1.63-2,3.85-4.65,6.55-7.83,6.65-7.84,16.21-18.78,27.07-30.19,3.49-3.67,9.84-8.34,18.46-4.23h0l.29-.37Z"/><path class="cls-7" d="M347.27,57.18l0,0h0c4.1,8.62-.57,15-4.23,18.46-11.41,10.85-22.35,20.42-30.2,27.07-3.39,2.88-6.2,5.21-8.22,6.87,2-1.63,4.65-3.85,7.83-6.54,7.84-6.66,18.78-16.22,30.19-27.08,3.67-3.49,8.34-9.84,4.23-18.45v0l.37-.29Z"/><path class="cls-19" d="M276.52,66.33,279.17,69c-4.12,2.91-8.23,5.94-12,8.79-.21.15-.24.11-.08-.08,1-1.2,4.34-5.37,9.42-11.35Z"/><path class="cls-18" d="M312.88,102.69c-6,5.08-10.15,8.46-11.35,9.43-.19.15-.23.12-.08-.08,2.85-3.77,5.88-7.88,8.79-12l2.64,2.64Z"/><path class="cls-19" d="M375.24,24.33,354.9,4,356,3.64,375.6,23.25c-.12.36-.23.72-.36,1.08Z"/><path class="cls-18" d="M375.24,24.33,365.06,14.15l.72-.72,9.82,9.82c-.12.36-.23.72-.36,1.08Z"/><path class="cls-19" d="M281.24,67.53c-.29.19-.57.39-.85.59l-2.92-2.91.67-.78,3.1,3.1Z"/><path class="cls-18" d="M314.78,101.07l-.77.67-2.92-2.91c.21-.29.4-.57.59-.85l3.1,3.09Z"/><path class="cls-27" d="M111.26,43.71s.09-.06.14-.05,0,.05.08.08l-.26,0a6.93,6.93,0,0,1,2.4-1.51.75.75,0,0,1,.55-.1,3.64,3.64,0,0,0,2.62-.13,9.05,9.05,0,0,1,4.17-.12c.88.14,1.76.33,2.64.47a18.18,18.18,0,0,1,4.55,1.46,5,5,0,0,1,2.28,2c.51.81,1.07,1.59,1.57,2.41a.84.84,0,0,1,0,.71,1.21,1.21,0,0,1-1.36.34c-.42-.28-.82-.61-1.22-.92a5.42,5.42,0,0,0-1.06-.81,3.13,3.13,0,0,1-2-1.67,1.18,1.18,0,0,0-.76-.52,26.3,26.3,0,0,0-4.14-.79,7.83,7.83,0,0,0-3.74.59,19.69,19.69,0,0,0-3.24,1.64c-1,.67-2,1.35-3.07,2a29.92,29.92,0,0,0-7.23,6.51c-2.11,2.49-4.15,5-6,7.69-.33.47-.63,1-1,1.43a5,5,0,0,1-.88,1,8,8,0,0,0-2.07,2.48c-1,1.71-2.24,3.26-3.11,5.05-.28.57-.65,1.1-.94,1.66A27.66,27.66,0,0,1,87.63,79a2.67,2.67,0,0,0-.39.65c-.83,1.79-1.65,3.59-2.49,5.38a5,5,0,0,1-.42.64,6.13,6.13,0,0,0-.67,1.16c-.56,1.7-1.54,3.21-2.19,4.88a5.46,5.46,0,0,1-.48,1,13.3,13.3,0,0,0-1.31,3c-.75,2.17-1.62,4.29-2.51,6.41-.68,1.65-1.27,3.34-1.93,5-.28.72-.65,1.4-.93,2.1s-.62,1.68-.9,2.53c-.56,1.7-1.1,3.4-1.65,5.1a1.58,1.58,0,0,1-.16.35,19.46,19.46,0,0,0-2,5.92,2.59,2.59,0,0,1-2.78,2.07,6.22,6.22,0,0,0-1-.09c-1.38.21-2.64-.35-3.95-.58a2.53,2.53,0,0,1-1.42-.94,11.71,11.71,0,0,1-2-3.24,9.93,9.93,0,0,1-1-4.26,9.16,9.16,0,0,0-.12-1.15,27.08,27.08,0,0,1-.35-3.22c0-1.53.23-3,.38-4.58.11-1,.25-2,.37-3a1.88,1.88,0,0,0,.06-.57c-.23-1.31.33-2.51.51-3.75.07-.44.29-.87.32-1.3a30.08,30.08,0,0,1,.82-4.53,12.14,12.14,0,0,1,.28-2.06,15.11,15.11,0,0,0,.54-2.23c.15-.68.26-1.38.41-2.06s.34-1.36.49-2A31.65,31.65,0,0,1,62,81.82a4,4,0,0,0,.16-1.14,2.18,2.18,0,0,1,.28-1.08,2.16,2.16,0,0,0,.34-1.82,1.12,1.12,0,0,1,.09-.55c.37-1.28.49-2.63,1-3.88a1.23,1.23,0,0,0,.12-.37,45.75,45.75,0,0,1,1.84-7,65,65,0,0,0,2-7.78,1.08,1.08,0,0,0-.08-.91A12.78,12.78,0,0,0,63.91,59a39.45,39.45,0,0,0-6.2,4.46,2.64,2.64,0,0,1-.61.46,31.82,31.82,0,0,0-3.48,2.37,7.2,7.2,0,0,1-1,.63c-1.63.75-3.06,1.83-4.61,2.72a6.8,6.8,0,0,1-3.29.9,11.54,11.54,0,0,1-3-.21,8.57,8.57,0,0,1-2.89-1.46,2.55,2.55,0,0,1-.5-.58c-.31-.47-.61-1-.92-1.44.12,0,.26-.13.31-.1a4.6,4.6,0,0,0,2.56.65c.71,0,1.41,0,2.11,0a8.3,8.3,0,0,0,3.82-1c2-1,3.76-2.55,5.71-3.72.26-.16.42-.48.66-.69q3.56-3.19,7.28-6.22A14.3,14.3,0,0,1,65.32,53a6.18,6.18,0,0,1,3.22,0,8.62,8.62,0,0,0,1.12.25,7.58,7.58,0,0,1,4,2.11,3.93,3.93,0,0,1,1.13,3.85c-.21,1-.44,2-.69,3-.34,1.3-.7,2.59-1.06,3.88-.07.24-.11.56-.28.69-1,.82-.87,2.09-1.34,3.11A4.78,4.78,0,0,0,71,72.18a2.4,2.4,0,0,1,0,.76q-.58,2.52-1.22,5a3.54,3.54,0,0,1-.5,1.23,4.79,4.79,0,0,0-.74,2c-.26,1-.35,2.14-.64,3.19-.19.72.15,1.38,0,2.08s-.64,1.22-.5,2a4.87,4.87,0,0,1-.31,1.68c-.82.54-.64,1.48-.87,2.24a4.22,4.22,0,0,0-.1,1.7,7,7,0,0,1-.21,2.07c-.54,2.56-1,5.14-1.36,7.73a15.26,15.26,0,0,1-.53,2.22,6.29,6.29,0,0,0-.32,3.93,2.13,2.13,0,0,1,.11.75,37.5,37.5,0,0,1-.21,5,6.61,6.61,0,0,0,.12,2.83,15.52,15.52,0,0,1,.48,2.25,4.52,4.52,0,0,0,.58,1.39c.16.34.37.65.53.92.35.11.39-.12.43-.27.24-1,.46-2,.69-3,.08-.31.15-.62.25-.92.8-2.5,1.55-5,2.42-7.48s1.77-4.64,2.65-7c.52-1.37,1-2.76,1.54-4.12A34.71,34.71,0,0,1,75,96.09c.76-2.45,2.23-4.59,3-7,.92-1.39,1.26-3.07,2.25-4.43a7.32,7.32,0,0,0,.69-1.37c1.12-2.37,2.24-4.73,3.53-7,.62-1.11,1.19-2.26,1.75-3.4a56.88,56.88,0,0,1,3.56-5.89c.59-.91,1.15-1.84,1.72-2.76a78.54,78.54,0,0,1,4.74-6.74c1-1.27,1.86-2.6,2.9-3.81a59.46,59.46,0,0,1,5-5.26A37.68,37.68,0,0,1,108.81,45a1.82,1.82,0,0,1,.53-.16c.06,0,.11,0,.16,0a.2.2,0,0,1,.08.08l-.28,0A3.33,3.33,0,0,1,111.26,43.71ZM60.39,105.5a3.78,3.78,0,0,1-.09,1,23.84,23.84,0,0,0-.37,4.38c0,1.14,0,2.29.07,3.44a6.83,6.83,0,0,0,.19.93c0-.64.07-.89.07-1.13a44.91,44.91,0,0,1,.49-6.85c.18-1.13.33-2.26.46-3.39.08-.69.09-1.38.13-2.07A9.84,9.84,0,0,0,60.39,105.5ZM60.5,117c0-.06-.19-.09-.29-.1s-.11.09-.1.13a3.46,3.46,0,0,0,.5,1.58A4.08,4.08,0,0,0,60.5,117ZM87.06,74.07a.27.27,0,0,0,0-.15s-.1,0-.1,0a.39.39,0,0,0,0,.15S87.06,74.09,87.06,74.07Zm1.5-2.72,0-.14-.06.13ZM91,67.07c-.07,0-.14,0-.18,0-.54.46-.54.46-.69,1.55.41-.49.88-.92.83-1.61a1.25,1.25,0,0,0,.79-1.14c.09-.05.21-.08.26-.16s-.07-.16-.12-.25-.1.08-.11.13,0,.21,0,.31A1.09,1.09,0,0,0,91,67.07Zm3-4.68c.43-.45.89-.87,1.27-1.35a3,3,0,0,0,.31-.87c.21-.21.42-.42.62-.65,0,0,0-.15,0-.15s-.26,0-.32,0a.71.71,0,0,0-.23.82,2.49,2.49,0,0,0-1.58,2.23,1.69,1.69,0,0,0-.77,1.18,2.09,2.09,0,0,0-.28.17s0,.15,0,.15c.27,0,.24-.18.2-.35C93.83,63.37,94,62.88,94.05,62.39Zm3.6-5.13s-.07.09-.08.14a.86.86,0,0,0,0,.16.55.55,0,0,0,.23-.11,2.15,2.15,0,0,0,.13-.32c.07-.1.14-.19.2-.29s0-.08,0-.12c0,.15-.07.3-.11.45A2,2,0,0,0,97.65,57.26Zm1.66-2.36c0,.05,0,.2,0,.3s.12,0,.15,0a1.33,1.33,0,0,0,.69-1.21.63.63,0,0,0,.75-.4c.09-.23.47-.43.09-.82L100.21,54C99.91,54.3,99.6,54.59,99.31,54.9Zm4.16-4.26c.16-.2.36-.36.51-.56a.32.32,0,0,0,0-.33c0-.06-.25-.11-.29-.06-.42.38-.81.78-1.21,1.18-.12.14-.25.27-.36.41s-.23.28-.33.43,0,.49.14.46a.64.64,0,0,0,.3-.14c.39-.34.23-.79.21-1.2C102.81,50.92,103.18,51,103.47,50.64Z"/><path class="cls-28" d="M116.52,86.72a62.76,62.76,0,0,1-5.36,7.06,66.48,66.48,0,0,1-8.66,7.78,11.74,11.74,0,0,1-1.37.81,4,4,0,0,1-5.42-.76,16.53,16.53,0,0,1-1.57-1.68,4.69,4.69,0,0,1-.78-3.52,22.9,22.9,0,0,1,2.29-7c1.35-3.07,2.86-6.08,4.33-9.1A5.32,5.32,0,0,1,100.9,79a2.14,2.14,0,0,1,3-.47c.37.19.7.44,1.06.64a2.19,2.19,0,0,1,1.13,2.23,5.24,5.24,0,0,1-.75,2.51,64,64,0,0,0-3.64,6.25,41.37,41.37,0,0,0-3.15,7.67,5.9,5.9,0,0,0-.25,2.89,4.65,4.65,0,0,0,3-.92,43,43,0,0,0,13.13-13.44l0-.06A5.83,5.83,0,0,0,116.52,86.72ZM107.66,74.3c2.15.34,3.13-.19,4.09-2.12.73-1.48,1.47-3,2.29-4.37s1.85-3,2.79-4.49a2.63,2.63,0,0,0,.46-2.5A4.12,4.12,0,0,0,114,58.49c-1.36-.23-2.06.62-2.62,1.65-1.63,3-3.27,6-4.85,9a8.76,8.76,0,0,0-.92,4.74C106.32,74,107,74.19,107.66,74.3Z"/><path class="cls-29" d="M142.71,86.61l0,0c-1.75,1.91-3.43,3.88-5.19,5.78a22.4,22.4,0,0,1-2.27,1.95c-2.29,1.86-4.56,3.72-6.88,5.53-1,.79-2.22,1.37-3.17,2.23a26.15,26.15,0,0,1-3,2.22,3.7,3.7,0,0,1-2.86.53c-3.51-.62-5.57-2.89-6.79-6a7,7,0,0,1-.1-4,38.1,38.1,0,0,1,3.13-8.25,45.09,45.09,0,0,1,6-9.11,6,6,0,0,1,6.18-2.17,3.68,3.68,0,0,1,3.09,3,7.88,7.88,0,0,1,.16.87,21.1,21.1,0,0,1-.69,5.38,5.64,5.64,0,0,1-1.11.09c-1.07-.13-1.47-.56-1.39-1.63.07-.88.29-1.75.42-2.62a3.89,3.89,0,0,0,0-1.85c-1.22,1.39-2.48,2.76-3.65,4.19a35.46,35.46,0,0,0-5.5,9.42,41.8,41.8,0,0,0-2,6,6.15,6.15,0,0,0,.56,3.61,1,1,0,0,0,1.32.61,13.52,13.52,0,0,0,2.85-.9,29,29,0,0,0,4.37-2.67c3.58-2.78,7.4-5.28,10.58-8.54,1.19-1.23,2.37-2.47,3.49-3.76l.21-.24a6,6,0,0,0,1.54.24Z"/><path class="cls-30" d="M134.25,97.79a56.4,56.4,0,0,1,2.67-9.15l.6.75.57-.88-.69-.58.45-.36a3.49,3.49,0,0,1-.17-1.25,32.26,32.26,0,0,1,1-3.28c.91-2.69,1.85-5.36,2.81-8a21.6,21.6,0,0,1,1.31-3.19c1.07-2,1.31-4.21,2.24-6.24.78-1.7,1.52-3.43,2.27-5.15s1.42-3.22,2.14-4.82c.17-.38.39-.75.59-1.13,1.55-.39,1.89,1.06,2.91,1.68.06-.67.1-1.21.15-1.85a6.59,6.59,0,0,0-3.25-.22A21.25,21.25,0,0,1,145,54a14.51,14.51,0,0,0-3.53.13c-2.25.17-4.49.37-6.74.54a8.08,8.08,0,0,1-1-.06,7.09,7.09,0,0,1,2.74-.61,21.77,21.77,0,0,1,2.52-.24c-.12-.4-.18-.64-.28-1l5.19-.42c0-.11.08-.27.16-.53l1,.07c.41,0,.87.25,1.2.11,1.63-.74,3.28-.49,4.93-.63a5,5,0,0,0,.7-.17c1.13-1.95,2.33-4,3.49-6.06s2.16-4,3.29-5.89c.61-1.05,1-1.15,2.07-1a4.8,4.8,0,0,1,3.11,2.2,2.56,2.56,0,0,1-.24,3l-4.24,6.23c-.27.39-.51.8-.81,1.27a7,7,0,0,0,3.26.75,19.07,19.07,0,0,1,2.4.4,1.34,1.34,0,0,1,1.08,1.54,1.62,1.62,0,0,1-1.42,1.25,10.58,10.58,0,0,1-2.45,0c-1-.09-1.95-.35-2.93-.47a18.2,18.2,0,0,0-2,0c-.35.6-.69,1.11-1,1.64-1.54,3.12-3.13,6.2-4.56,9.36-.95,2.09-1.69,4.27-2.49,6.42-1.35,3.62-2.74,7.23-4,10.87-.93,2.66-1.71,5.38-2.56,8.07-.34,1.09-.71,2.17-1,3.27-1.08,3.87-2.29,7.73-3.19,11.64-.68,3-.94,6,.45,8.78a9.14,9.14,0,0,0,.57.88,14.07,14.07,0,0,0,3.06-2.11,42,42,0,0,0,6.07-6.43A58.13,58.13,0,0,0,154,97.48c.85-1.67,2.09-3.16,3.07-4.78,1.41-2.3,2.72-4.64,4.09-7,.45-.78.95-1.54,1.43-2.31a2.82,2.82,0,0,1,2.52,1A16.23,16.23,0,0,1,164,86.23a49.08,49.08,0,0,0-4.47,6.91c-.62,1.1-1.51,2.06-2.25,3.11a14.06,14.06,0,0,0-2.2,4.74,12.41,12.41,0,0,1-2,3.82c-1.28,1.79-2.78,3.42-4.12,5.17a32,32,0,0,1-6.92,7.07,4.19,4.19,0,0,1-4.06.74c-.79-.32-1.55-.71-2.34-1-1.8-.75-2.57-2.29-3.13-4a14.32,14.32,0,0,1,0-7.82c.33-1.34.58-2.69.89-4a2.26,2.26,0,0,1,.85-1.66c.67,1.19-.21,2.42-.15,3.66l1.77.27a2.59,2.59,0,0,0,.64-2.66,4.58,4.58,0,0,1-.16-1.2c.7-.12,1-.6,1.17-1.23a16.4,16.4,0,0,0,.86-6c-1.65.29-.85,1.7-1.37,2.54l-.77.29c.15.22.3.44.24.36-.05,1-.09,1.67-.11,2.34s0,1.16,0,1.75C135.18,99.46,134.66,98.85,134.25,97.79Zm-.94,12v-.94h-.16c0,.31-.05.62-.08.94Zm1-4a1.32,1.32,0,0,0,.5.06l.06-.19-.83-.47C134.17,105.61,134.19,105.79,134.29,105.84ZM139,90.61l-.46.43a2.17,2.17,0,0,0,.45.41c.05,0,.24-.19.46-.37Zm2.3-6c.67-.6.5-1.51.85-2.24A2.37,2.37,0,0,0,141.31,84.57Zm2.32-5.5c-1.14.61-.86,1.25-.72,2.15C143.18,80.4,143.37,79.85,143.63,79.07ZM146,72.9c-1.26,1.15-1.3,2.57-2,4C145,76.19,145,76.19,146,72.9Zm.19-1.32-.48.53.17.18.58-.44Z"/><path class="cls-31" d="M186.84,88.07c-1.26,1.11-2.51,2.22-3.78,3.31a12.36,12.36,0,0,1-2.15,1.53,22.94,22.94,0,0,0-3.59,2.24,3.1,3.1,0,0,1-1.29.49c-1,.2-2,.33-3.07.52-.18.26-.43.58-.64.92a37.81,37.81,0,0,1-5.35,6.55c-.81.83-1.92,1.29-2.57,2.35a1.91,1.91,0,0,1-1.91.68,9.63,9.63,0,0,1-6-3,7.45,7.45,0,0,1-2.06-5.81,9.88,9.88,0,0,1,.48-2.58,24.12,24.12,0,0,1,2.56-5.81,41.52,41.52,0,0,0,2.32-4c.81-1.61,1.83-2.88,3.72-3.2.22-.53.42-1,.63-1.5a43.08,43.08,0,0,1,8-11.38,3.89,3.89,0,0,1,2.83-1.24,7.33,7.33,0,0,1,3.12.44A3.7,3.7,0,0,1,180.62,72a24.86,24.86,0,0,1-1.44,9.87,6.42,6.42,0,0,0-.29.84A24.59,24.59,0,0,1,175.56,91a24.12,24.12,0,0,0-1.05,2.38c1.26-.48,2.21-.77,3.09-1.19a26,26,0,0,0,6.89-4.74A5,5,0,0,0,186.84,88.07Zm-16.23,7.5a41.09,41.09,0,0,1-3.45-2.25c-1.08-.85-2-1.88-3.11-2.92-.81,1.28-1.48,2.46-2.25,3.56-1.68,2.37-2,5.1-2.17,7.88a2.78,2.78,0,0,0,1,2.49,10.49,10.49,0,0,0,4.2-1.92A30.64,30.64,0,0,0,168.23,99,12.45,12.45,0,0,0,170.61,95.57Zm7-23.1a3.27,3.27,0,0,0-.59.34,28.24,28.24,0,0,0-8.06,11,12.82,12.82,0,0,0-.9,6.06,3.73,3.73,0,0,0,3.29,3.71C174.44,90.36,178.59,76.47,177.66,72.47Z"/><path class="cls-32" d="M216.8,87.24a6.61,6.61,0,0,1-.41,1.52,7.65,7.65,0,0,1-1.19,1.54,63,63,0,0,0-6,8.06,20.82,20.82,0,0,1-1.89,2.32c-1.45,1.55-2.87,3.14-4.44,4.56a37,37,0,0,1-7.66,5.58c-.17.06-.84.57-1,.66-2.26,1.42-3,2.91-5,1.57a8.82,8.82,0,0,1-1.73-1.15,7.64,7.64,0,0,1-1.48-8.38c.73-1.54,1.32-3.15,2-4.73.58-1.41,1.23-2.8,1.73-4.24a33.75,33.75,0,0,1,4.3-7.81c-.16-.15-.27-.29-.32-.27a15.93,15.93,0,0,1-4.7.65,2.1,2.1,0,0,1-.87,0c-2.18-.94-4.28-2-5.28-4.4a2.6,2.6,0,0,1-.13-2.06,14.91,14.91,0,0,1,1.18-2.56c1.24-1.86,2.58-3.65,3.9-5.46a2.67,2.67,0,0,1,3.37-.24c.42.32.81.69,1.2,1a2.58,2.58,0,0,1,0,4.23,18.58,18.58,0,0,0-4.54,5.58,3.94,3.94,0,0,0-.18.48,4.48,4.48,0,0,0,3.21.1c1-.28,2-.6,3.07-.86.62-.15,1.27-.23,1.91-.34a4.93,4.93,0,0,1,4.71,1.81c1.11,1.23,1.06,2.39.05,3.73-1.52,2-2.91,4.15-4.33,6.24a35.9,35.9,0,0,0-3.75,7.19c-.87,2.25-1.55,4.57-2.26,6.88a2.34,2.34,0,0,0,0,2.32,3.33,3.33,0,0,0,2.06-.72,11.51,11.51,0,0,0,2.9-1.77,18.74,18.74,0,0,0,2.42-1.58,45.69,45.69,0,0,0,8.66-8.06c2.46-3,4.59-6.27,6.87-9.43.7-1,1.15-2.2,2.42-2.83Zm-28.18,14.2c.62-.41.65-.91.45-1.8C188.87,100.38,188.31,100.71,188.62,101.44Z"/><path class="cls-33" d="M255.66,84.5c-.47.67-.93,1.35-1.43,2a21.62,21.62,0,0,1-2.63,2.61c-2.47,2.36-4.89,4.77-7.45,7a68.06,68.06,0,0,1-5.72,4.42,4,4,0,0,0-1.65,2.19c-1.55,5.26-3.23,10.49-4.63,15.79a105.25,105.25,0,0,1-3.64,10.7,74,74,0,0,1-3.58,8.27,27.65,27.65,0,0,1-5.2,7.54c-4.85,4.52-9.33,4.72-14.66,2.46a16.75,16.75,0,0,1-2.84-1.76,7.43,7.43,0,0,1-2.77-4.6,7.08,7.08,0,0,1-.08-3,26.51,26.51,0,0,1,4.31-10.92,40.32,40.32,0,0,1,5.28-6.16c1.3-1.2,2.49-2.51,3.82-3.67.93-.81,2-1.43,3-2.18,2.65-2,5.33-3.91,7.9-6a55.7,55.7,0,0,1,6-4.37,2.82,2.82,0,0,0,1.26-1.84c.82-3.07,1.73-6.12,2.51-9.21.6-2.38,1-4.81,1.63-7.57-1.1,1.29-2,2.35-2.88,3.39S230.32,92,229.27,93c-2,2-3.91,3.94-6,5.7a57.66,57.66,0,0,1-5.28,3.52,4.72,4.72,0,0,0-1,.68,1.81,1.81,0,0,1-2.41.33,10.8,10.8,0,0,1-2-1.07A5.49,5.49,0,0,1,210.42,98a19.65,19.65,0,0,1,.91-7,46.59,46.59,0,0,1,3-7.74c.87-1.8,1.66-3.64,2.46-5.48a2,2,0,0,1,2.52-1.33,7.14,7.14,0,0,1,2.21,1,2.44,2.44,0,0,1,.89,3.28c-1,2.07-2.15,4.06-3.2,6.11A28.63,28.63,0,0,0,217,91.57c-.83,2.76-1.37,5.61-2,8.43a4.57,4.57,0,0,0,0,1,2.62,2.62,0,0,0,2.05-.58,22.76,22.76,0,0,1,2.14-1.23,16.82,16.82,0,0,0,4-2.91,87.81,87.81,0,0,0,9.19-9.8c.83-1,1.56-2.1,2.44-3a10.22,10.22,0,0,0,2.48-4.62c.54-2.09,1.32-2.47,3.34-1.81a3.14,3.14,0,0,1,2.07,4.32,77.91,77.91,0,0,0-3.2,10.67c-.3,1.38-.73,2.73-1.09,4.1-.19.73-.35,1.46-.61,2.54a79.34,79.34,0,0,0,11-9.62c1.57-1.56,3.11-3.15,4.65-4.76l.09,0,1.56.21A5.44,5.44,0,0,0,255.66,84.5ZM224.1,125.94c.44-1.59.93-3.16,1.4-4.74q1.71-5.67,3.4-11.34c.2-.66.39-1.31.72-2.39-1,.59-1.61.89-2.16,1.3-2.44,1.85-4.86,3.73-7.29,5.6a28.74,28.74,0,0,1-2.82,2.11c-2.8,1.61-4.84,4.1-7.2,6.21s-3.86,4.89-5.34,7.62c-.82,1.49-1.23,3.19-2,4.72-1.48,3-.46,5.95.35,8.88a1.24,1.24,0,0,0,.31.42c1.2,1.12,2.28,2.45,4.18,2.33.28,0,.57.18.85.2,1,.06,2,.11,3,.13.64,0,.94-.37,1-1-1.1.16-2.06,1.11-3.5.48.5-.21.81-.36,1.12-.47a12.58,12.58,0,0,0,6.64-5c.78-1.24,1.62-2.46,2.36-3.72.35-.59.69-1.09,1.46-1.08.07,0,.15-.15.23-.24-.13-.41-.28-.82-.44-1.29l.82-.36a11.39,11.39,0,0,1,.26-1.95,23.23,23.23,0,0,1,1.15-2.78c.28-.57.8-1,1-1.63A18.86,18.86,0,0,0,224.1,125.94Zm-9,18.84a2.42,2.42,0,0,0-2.48,1.2Zm2.49-2.89-.23-.16-.68.91.27.17Zm8.09-11c-.12-.4-.22-.76-.33-1.13C224.73,130.69,224.73,130.7,225.64,130.85Zm5-17.77,1,.14c-.59-.77-.14-1.59,0-2.36l-.89-.36-.35,1.88c-.52.22-.52.72-.63,1.17-.36,1.54-.72,3.08-1.13,4.6-.58,2.2-1.19,4.4-1.81,6.59a4.52,4.52,0,0,1-.54,1.28,5.56,5.56,0,0,0-.9,3.65c1.14-1.41,1.42-3.17,2-4.81s.78-3.07,2.24-4.09l-1-.36c1.09-.85,2.09-1.75,1.2-3.16l.76-.55c0-.53-.36-1,.16-1.61C231,114.7,230.67,113.77,230.64,113.08Zm1.84-7.47-.62.85C232.54,106.32,232.54,106.32,232.48,105.61Z"/><path class="cls-34" d="M92.06,150l2.5-.74A18.41,18.41,0,0,0,99,155.7a10.52,10.52,0,0,0,7.69,3.08A7.37,7.37,0,0,0,112,157a5.85,5.85,0,0,0,2-4.42,6,6,0,0,0-1.85-4.59,18.68,18.68,0,0,0-6.08-3.31l-1.4-.54a27.21,27.21,0,0,1-5.57-2.7,13,13,0,0,1-3.85-3.69,8.41,8.41,0,0,1-1.42-4.77,9.88,9.88,0,0,1,1.86-5.79A12.45,12.45,0,0,1,101,123a20.75,20.75,0,0,1,8.27-1.53,25,25,0,0,1,6.46.79c.92.26,1.54.44,1.86.51l1.17.31q.38,2.79,1.48,8.27l-2.55.4a16.11,16.11,0,0,0-3.4-5.51,8.11,8.11,0,0,0-6-2.1,7.08,7.08,0,0,0-5,1.67,5.47,5.47,0,0,0-1.83,4.21,5.08,5.08,0,0,0,1.9,3.85,17.88,17.88,0,0,0,5.74,3.08l2.26.8a22.92,22.92,0,0,1,7.86,4.43,9.09,9.09,0,0,1,2.93,7.05A10.29,10.29,0,0,1,121,154a11.4,11.4,0,0,1-3.37,3.9,16.56,16.56,0,0,1-5.33,2.6,23.41,23.41,0,0,1-6.76.93,27.22,27.22,0,0,1-7.09-.94,43.3,43.3,0,0,1-4.21-1.34Q93.67,157.56,92.06,150Z"/><path class="cls-35" d="M146.57,151.51V131.32a20.68,20.68,0,0,0-.36-4.66,2.46,2.46,0,0,0-1.44-1.8,13.71,13.71,0,0,0-3.82-.64v-2h32.19q.18,2.48.76,9.22l-2.51.17q-1-4-2.6-5.33a5,5,0,0,0-2.58-1,31,31,0,0,0-5-.31h-2.75a13.93,13.93,0,0,0-2,.09.82.82,0,0,0-.65.46,4.46,4.46,0,0,0-.15,1.46v12h5.1a24.08,24.08,0,0,0,4.45-.28,2.23,2.23,0,0,0,1.66-1.16,14.31,14.31,0,0,0,.84-3.46h2.53V147h-2.53a14,14,0,0,0-.84-3.49,2.22,2.22,0,0,0-1.64-1.17,23.17,23.17,0,0,0-4.47-.28h-5.1v9.19a19.28,19.28,0,0,0,.34,4.5,2.33,2.33,0,0,0,1.4,1.62,5.16,5.16,0,0,0,1.48.4c.5.06,1.07.09,1.71.11s1.56,0,2.77,0q6,0,8-1.82,1.73-1.54,3.43-5.86l2.53.39c-.18,1-.55,2.69-1.13,5.08a44.27,44.27,0,0,1-1.33,4.83H140.23v-1.88a23.52,23.52,0,0,0,3.6-.41,3.4,3.4,0,0,0,1.74-.94,3.58,3.58,0,0,0,.81-1.93A29.39,29.39,0,0,0,146.57,151.51Z"/><path class="cls-36" d="M209.12,131.3v19.95a29.78,29.78,0,0,0,.14,3.43,5.15,5.15,0,0,0,.47,1.79,2.05,2.05,0,0,0,1.14.89,16.62,16.62,0,0,0,5.27.54q5.52,0,7.57-1.87a17.17,17.17,0,0,0,3.35-5.8l2.54.4q-.34,2-1.16,5.4a36.21,36.21,0,0,1-1.3,4.49H193.68v-1.88a23.36,23.36,0,0,0,3.59-.41,3.43,3.43,0,0,0,1.75-.94,3.51,3.51,0,0,0,.8-1.93,27.8,27.8,0,0,0,.19-3.85V131.3a20.53,20.53,0,0,0-.37-4.66,2.51,2.51,0,0,0-1.5-1.8,14.86,14.86,0,0,0-4-.64v-1.93h21v1.93a15.67,15.67,0,0,0-4.13.64,2.49,2.49,0,0,0-1.52,1.8A19.81,19.81,0,0,0,209.12,131.3Z"/><path class="cls-37" d="M251.91,151.51V131.32a20.68,20.68,0,0,0-.36-4.66,2.47,2.47,0,0,0-1.43-1.8,13.78,13.78,0,0,0-3.82-.64v-2h32.19c.11,1.65.37,4.72.75,9.22l-2.5.17q-1-4-2.6-5.33a5,5,0,0,0-2.59-1,30.92,30.92,0,0,0-5-.31h-2.74a13.93,13.93,0,0,0-2,.09.82.82,0,0,0-.65.46A4.38,4.38,0,0,0,261,127v12h5.11a24.08,24.08,0,0,0,4.45-.28,2.25,2.25,0,0,0,1.66-1.16,14.82,14.82,0,0,0,.84-3.46h2.53V147h-2.53a14.49,14.49,0,0,0-.84-3.49,2.26,2.26,0,0,0-1.64-1.17,23.24,23.24,0,0,0-4.47-.28H261v9.19a19.12,19.12,0,0,0,.35,4.5,2.28,2.28,0,0,0,1.4,1.62,5.19,5.19,0,0,0,1.47.4c.51.06,1.07.09,1.71.11s1.57,0,2.78,0q6,0,8-1.82,1.72-1.54,3.43-5.86l2.53.39c-.18,1-.56,2.69-1.13,5.08a44.27,44.27,0,0,1-1.33,4.83H245.58v-1.88a23.52,23.52,0,0,0,3.6-.41,3.4,3.4,0,0,0,1.74-.94,3.58,3.58,0,0,0,.81-1.93A29.8,29.8,0,0,0,251.91,151.51Z"/><path class="cls-38" d="M341.25,132.47l-2.54.34a14,14,0,0,0-2.86-5.26,9.73,9.73,0,0,0-4.12-2.68,17.79,17.79,0,0,0-5.55-.78,17,17,0,0,0-6.9,1.33,13.53,13.53,0,0,0-5,3.67,16,16,0,0,0-3,5.27,19.52,19.52,0,0,0-1,6.27,21.92,21.92,0,0,0,2,9.43,14.63,14.63,0,0,0,13.76,8.72,16.51,16.51,0,0,0,4.7-.62,12.27,12.27,0,0,0,3.7-1.81,15.2,15.2,0,0,0,3.07-3,32.73,32.73,0,0,0,2.74-4.12l2.53.4q-.69,2.48-1.75,5.57a35.23,35.23,0,0,1-1.81,4.55,64,64,0,0,1-13.12,1.65q-8.83,0-14.74-2.79a19.61,19.61,0,0,1-8.67-7.23A17.65,17.65,0,0,1,300,142a17.42,17.42,0,0,1,3.42-10.46,22.7,22.7,0,0,1,9.69-7.4,36.07,36.07,0,0,1,14.32-2.68,44.48,44.48,0,0,1,5.08.28c1.66.19,3.09.4,4.3.65s2.29.46,3.22.63Q340.54,125.91,341.25,132.47Z"/><path class="cls-39" d="M383.63,125v26.52a26,26,0,0,0,.21,3.86,3.47,3.47,0,0,0,.87,1.94,3.63,3.63,0,0,0,1.88.93,28.16,28.16,0,0,0,3.93.39v1.88H367.91v-1.88a26.1,26.1,0,0,0,3.75-.39,3.48,3.48,0,0,0,1.8-.9,3.61,3.61,0,0,0,.84-1.94,25,25,0,0,0,.22-3.89V125h-1.78a30,30,0,0,0-5.86.42,5.87,5.87,0,0,0-2.77,1.24c-.94.87-1.79,2.68-2.57,5.41H359c.11-1.74.25-3.53.39-5.36s.3-3.79.46-5.89h1.31a4.85,4.85,0,0,0,1.65,1.2,7.08,7.08,0,0,0,2.22.25h28.18a6.09,6.09,0,0,0,2.14-.3,6.28,6.28,0,0,0,1.73-1.15h1.34c.07,2.2.31,5.88.75,11.05l-2.5.2c-.69-3-1.55-4.88-2.61-5.74a4.84,4.84,0,0,0-2.57-1,30.72,30.72,0,0,0-5-.31Z"/><path class="cls-40" d="M0,66.59a10.15,10.15,0,0,1,2.8,1.19,42.4,42.4,0,0,0,5.23,3c1.31.53,3.53,0,5.25-.57a11.39,11.39,0,0,0,3.59-2.53s.71-7.73.44-8.85-.73-2.35-.36-2.94,1.11-.93,1.61-1.72a12.71,12.71,0,0,0,1.17-8.51,4.5,4.5,0,0,1-.8-2c-.06-1,1.36-.65,1.84-.77s1.31-.81,1.35-1.33-.35-2.94.49-3.65,2.09-1.83,2.09-1.83a30.85,30.85,0,0,1,1.8-4.46c.73-1.19,1.77-1.76,2.58-3.3s-.36-2.95.53-4.16,1,.1,2-.13,3.65-3,4.46-3.91,1.48-1.52,2.16-1.52a3.39,3.39,0,0,1,1.45.51s.82-2.22,1.86-2.8,3.14-.91,4.87-2.15,2.29-2.39,3.76-3.25A15.35,15.35,0,0,1,54.3,9.24C55.57,8.94,61,7.16,61,7.16a7.61,7.61,0,0,1-.24-2.46c.21-.56,2.86,2.18,2.86,2.18s2.22.16,2.7-.64.57-1.14,1.44-1a22.49,22.49,0,0,0,2.85.67c.83,0,4.92-.49,5.87-.71s3.43,1,4.85,1.38,2.83,1.35,4.22,1.52,1.5,0,2.49.6a9.89,9.89,0,0,0,3.51.68L92,8.44a34.76,34.76,0,0,0,4.12,3.23c1.13.57,1.07-.42,2,.19s.13,2,1.11,2.61,2.18,0,4.11,1.71.57,1.72,1.78,2.61,4.24.18,5.26.94,4.36,8.57,4.36,8.57,1.39-.5,1.72-1.25a7.63,7.63,0,0,0,0-3.53c-.23-1-3-4.33-4.61-5.3s-4.28-2.53-5-3.53-2.09-3.22-2.09-3.22a2.81,2.81,0,0,1-1.56-.13c-.74-.33-1.07-2.44-1.07-2.44S100,8.24,99.47,8s-1.22.46-1.22.46a17,17,0,0,0-2.67-2.07c-1.57-1-3.37,0-5.85-.64s-5.4-2.94-5.79-3.85S81.87,3.09,80.69,3s-1.33-1.36-2-1.88S71.28.88,67.81.35s-4.43-.3-4.43-.3-2,2.15-2.81,2.34-3.79-.46-4.35-1.33A1.27,1.27,0,0,0,54.89.37S52.17.17,44.47,3.15,33.59,7.56,33.59,7.56s.23,1.63-1.74,3.27a3.72,3.72,0,0,1-3.85.75l-5.25,4.09a1.93,1.93,0,0,0-1.55.53c-.68.66-4.93,4-6.29,7.54s-.47,3-1.12,4.46-2.23.53-2.23.53a20.57,20.57,0,0,0-3.12,4.6,5.22,5.22,0,0,0-.24,3.92,12.62,12.62,0,0,1-1.92,1.8,6.54,6.54,0,0,0-2.22,2.71,37.84,37.84,0,0,0-.5,4.32C3.38,47.46.7,50.28.5,53A40,40,0,0,0,1,60Z"/></g></g></svg>